# xmcd CD database file
#
# Track frame offsets:
#	150
#	23620
#	53212
#	85956
#	122118
#	144720
#	169947
#	212267
#	248692
#
# Disc length: 3715 seconds
#
# Revision: 0
# Processed by: cddbd v1.4PL0 Copyright (c) Steve Scherf et al.
# Submitted via: CDex 1.50
#
DISCID=740e8109
DTITLE=Martine Carrière et Jean Beaudet Trio - Horizon
DYEAR=2002
DGENRE=Jazz
TTITLE0=All of You
TTITLE1=For Yan
TTITLE2=Horizon
TTITLE3=Janvier
TTITLE4=Never Will I Marry
TTITLE5=Big Lou
TTITLE6=Pimaasinium
TTITLE7=Martini's Blues
TTITLE8=We'll Be Together Again
EXTD=YEAR: 2002
EXTT0=
EXTT1=
EXTT2=
EXTT3=
EXTT4=
EXTT5=
EXTT6=
EXTT7=
EXTT8=
PLAYORDER=
